<svg width="16" height="16" viewBox="0 0 16 16" fill="none" xmlns="http://www.w3.org/2000/svg">
<path d="M6.77777 10.4603L6.26596 10.9721L6.82969 11.5359L7.3365 10.9205L6.77777 10.4603ZM4.15485 8.86103L6.26596 10.9721L7.28958 9.94852L5.17847 7.83741L4.15485 8.86103ZM7.3365 10.9205L11.5587 5.79347L10.4413 4.87321L6.21904 10.0002L7.3365 10.9205Z" fill="white"/>
<rect width="16" height="16" rx="8" fill="rgba(173, 44, 211)"/>
<path d="M6.77777 10.4603L6.26596 10.9721L6.82969 11.5359L7.3365 10.9205L6.77777 10.4603ZM4.15485 8.86103L6.26596 10.9721L7.28958 9.94852L5.17847 7.83741L4.15485 8.86103ZM7.3365 10.9205L11.5587 5.79347L10.4413 4.87321L6.21904 10.0002L7.3365 10.9205Z" fill="white"/>
</svg>
