<svg  viewBox="0 0 22 16" fill="none" xmlns="http://www.w3.org/2000/svg">
<path fill-rule="evenodd" clip-rule="evenodd" d="M16.2715 4.67123C16.1771 4.57648 16.1028 4.46378 16.0528 4.33979C16.0028 4.21581 15.9781 4.08306 15.9803 3.94938C15.9825 3.81571 16.0115 3.68384 16.0655 3.56156C16.1195 3.43927 16.1975 3.32907 16.2949 3.23745C16.3923 3.14584 16.507 3.07468 16.6324 3.02818C16.7577 2.98168 16.8911 2.96079 17.0247 2.96673C17.1582 2.97268 17.2892 3.00534 17.4099 3.0628C17.5306 3.12025 17.6386 3.20132 17.7275 3.30123L21.7275 7.55122C21.9018 7.73668 21.9989 7.98166 21.9989 8.23623C21.9989 8.49079 21.9018 8.73577 21.7275 8.92123L17.7275 13.1712C17.5438 13.3557 17.2954 13.4614 17.0351 13.4656C16.7748 13.4699 16.5231 13.3724 16.3335 13.194C16.1439 13.0156 16.0313 12.7703 16.0197 12.5102C16.0081 12.2501 16.0985 11.9958 16.2715 11.8012L19.6265 8.23623L16.2715 4.67123V4.67123ZM5.72746 4.67123L2.37246 8.23623L5.72746 11.8012C5.90046 11.9958 5.99077 12.2501 5.97919 12.5102C5.96762 12.7703 5.85506 13.0156 5.66545 13.194C5.47585 13.3724 5.22414 13.4699 4.96383 13.4656C4.70352 13.4614 4.45513 13.3557 4.27146 13.1712L0.271457 8.92123C0.0970821 8.73577 0 8.49079 0 8.23623C0 7.98166 0.0970821 7.73668 0.271457 7.55122L4.27146 3.30123C4.45513 3.11671 4.70352 3.0111 4.96383 3.00684C5.22414 3.00258 5.47585 3.10001 5.66545 3.27842C5.85506 3.45683 5.96762 3.70215 5.97919 3.96224C5.99077 4.22233 5.90046 4.47668 5.72746 4.67123V4.67123Z" fill="rgba(173, 44, 211)"/>
<path opacity="0.3" d="M13.7771 1.48356C13.9201 0.950098 13.6035 0.401761 13.07 0.258819C12.5365 0.115877 11.9882 0.43246 11.8453 0.965926L8.22179 14.4889C8.07885 15.0224 8.39544 15.5707 8.9289 15.7136C9.46237 15.8566 10.0107 15.54 10.1536 15.0065L13.7771 1.48356Z" fill="rgba(173, 44, 211)"/>
</svg>
